<svg width="158" height="134" viewBox="0 0 158 134" fill="none" xmlns="http://www.w3.org/2000/svg">
<g clip-path="url(#clip0_1077_3425)">
<path d="M12.0157 13.7247C12.0157 11.5156 13.8066 9.7247 16.0157 9.7247H33.7638C35.9729 9.7247 37.7638 11.5156 37.7638 13.7247V30.0365C37.7638 32.2456 35.9729 34.0365 33.7638 34.0365H16.0158C13.8066 34.0365 12.0157 32.2456 12.0157 30.0365V13.7247Z" fill="#E34F48"/>
<path d="M36.9055 41.278C36.9055 39.0689 38.6963 37.278 40.9055 37.278H58.6535C60.8626 37.278 62.6535 39.0689 62.6535 41.278V57.5898C62.6535 59.7989 60.8626 61.5898 58.6535 61.5898H40.9055C38.6964 61.5898 36.9055 59.7989 36.9055 57.5898V41.278Z" fill="#E34F48"/>
<path d="M97.8425 8.86235C97.8425 6.65321 99.6333 4.86235 101.842 4.86235H119.59C121.8 4.86235 123.59 6.65321 123.59 8.86235V25.1741C123.59 27.3832 121.8 29.1741 119.59 29.1741H101.842C99.6333 29.1741 97.8425 27.3832 97.8425 25.1741V8.86235Z" fill="#E34F48"/>
<rect x="101.276" y="51.8651" width="25.748" height="24.3118" rx="4" fill="#E34F48"/>
<rect x="120.157" y="87.5223" width="30.0393" height="28.3637" rx="4" fill="#E34F48"/>
<rect x="57.5039" width="25.748" height="24.3118" rx="4" fill="#E34F48"/>
<path d="M17.1653 76.1249C17.1653 73.9157 18.9562 72.1249 21.1653 72.1249H38.9134C41.1225 72.1249 42.9134 73.9157 42.9134 76.1249V92.4366C42.9134 94.6458 41.1225 96.4366 38.9134 96.4366H21.1653C18.9562 96.4366 17.1653 94.6458 17.1653 92.4366V76.1249Z" fill="#E34F48"/>
<path d="M0 46.9508C0 44.7416 1.79086 42.9508 4 42.9508H13.1653C15.3745 42.9508 17.1653 44.7416 17.1653 46.9508V55.1586C17.1653 57.3677 15.3745 59.1586 13.1653 59.1586H4C1.79086 59.1586 0 57.3678 0 55.1586V46.9508Z" fill="#E34F48"/>
<rect x="77.244" y="34.0365" width="17.1653" height="16.2078" rx="4" fill="#E34F48"/>
<rect x="52.3543" y="88.3327" width="21.4567" height="20.2598" rx="4" fill="#E34F48"/>
<path d="M70.3779 67.2106C70.3779 65.0014 72.1688 63.2106 74.3779 63.2106H83.5432C85.7524 63.2106 87.5432 65.0014 87.5432 67.2106V75.4184C87.5432 77.6275 85.7524 79.4184 83.5432 79.4184H74.3779C72.1688 79.4184 70.3779 77.6275 70.3779 75.4184V67.2106Z" fill="#E34F48"/>
<path d="M128.74 34.7949C128.74 32.5858 130.531 30.7949 132.74 30.7949H141.905C144.115 30.7949 145.905 32.5858 145.905 34.7949V43.0027C145.905 45.2119 144.115 47.0027 141.905 47.0027H132.74C130.531 47.0027 128.74 45.2119 128.74 43.0027V34.7949Z" fill="#E34F48"/>
<path d="M141.185 56.6755C141.185 54.4663 142.976 52.6755 145.185 52.6755H154.35C156.559 52.6755 158.35 54.4663 158.35 56.6755V64.8833C158.35 67.0925 156.559 68.8833 154.35 68.8833H145.185C142.976 68.8833 141.185 67.0925 141.185 64.8833V56.6755Z" fill="#E34F48"/>
<path d="M93.5511 121.507C93.5511 119.298 95.342 117.507 97.5511 117.507H106.716C108.926 117.507 110.716 119.298 110.716 121.507V129.715C110.716 131.924 108.926 133.715 106.716 133.715H97.5511C95.342 133.715 93.5511 131.924 93.5511 129.715V121.507Z" fill="#E34F48"/>
<path d="M91.8346 100.437C91.8346 98.2275 93.6255 96.4366 95.8346 96.4366H100.709C102.918 96.4366 104.709 98.2275 104.709 100.437V104.593C104.709 106.802 102.918 108.593 100.709 108.593H95.8346C93.6255 108.593 91.8346 106.802 91.8346 104.593V100.437Z" fill="#E34F48"/>
<rect width="25.5829" height="5.06392" transform="matrix(0.573692 -0.819071 0.848206 0.529667 6.86615 45.266)" fill="#E24E49"/>
<path d="M85.6665 44.3826L98.3693 18.5925L103.103 20.5269L90.4003 46.317L85.6665 44.3826Z" fill="#E24E49"/>
<rect width="25.4816" height="5.083" transform="matrix(-0.508267 -0.8612 0.884968 -0.465651 85.0459 44.5715)" fill="#E24E49"/>
<rect width="25.4816" height="5.083" transform="matrix(-0.508267 -0.8612 0.884968 -0.465651 129.676 96.4366)" fill="#E24E49"/>
<rect width="25.8984" height="5.00348" transform="matrix(-0.73787 0.674943 -0.716118 -0.697979 129.118 104.791)" fill="#E24E49"/>
<rect width="22.2516" height="5.04275" transform="matrix(-0.637208 -0.770692 0.804944 -0.593351 149.811 56.4136)" fill="#E24E49"/>
<path d="M11.4344 54.748L32.8966 78.1497L29.0038 81.3328L7.54154 57.9311L11.4344 54.748Z" fill="#E24E49"/>
<rect width="25.7686" height="5.02851" transform="matrix(0.675908 0.736986 -0.774155 0.632996 59.6802 55.1066)" fill="#E24E49"/>
<rect width="25.9266" height="4.998" transform="matrix(0.750546 -0.660818 0.702664 0.711522 60.0787 90.068)" fill="#E24E49"/>
<rect x="72.0944" y="99.6782" width="26.6063" height="4.86235" fill="#E24E49"/>
</g>
<defs>
<clipPath id="clip0_1077_3425">
<rect width="158" height="134" fill="white"/>
</clipPath>
</defs>
</svg>
